<svg viewBox="-2.9000000000000004 -2.9000000000000004 48 48" xmlns="http://www.w3.org/2000/svg" height="48" width="48" style="background-color: #28272b42"><path d="M21.15 0.88125a20.26875 20.26875 0 0 0 -6.406687499999999 39.504675c1.0116749999999999 0.17625000000000002 1.33245 -0.4177125 1.33245 -0.9535125 0 -0.48468750000000005 0.010575 -1.8277124999999999 0 -3.525 -5.640000000000001 1.223175 -6.8050125 -2.6701875 -6.8050125 -2.6701875a5.3632875 5.3632875 0 0 0 -2.24895 -2.9645249999999996c-1.84005 -1.258425 0.13747499999999999 -1.23375 0.13747499999999999 -1.23375a4.254675 4.254675 0 0 1 3.105525 2.0867999999999998 4.3145999999999995 4.3145999999999995 0 0 0 5.897325 1.68495 4.318125 4.318125 0 0 1 1.286625 -2.70015c-4.4996624999999995 -0.5146499999999999 -9.231975 -2.252475 -9.231975 -10.021575a7.8378375 7.8378375 0 0 1 2.0885625 -5.439075 7.272075 7.272075 0 0 1 0.1974 -5.3632875s1.7043374999999998 -0.5446124999999999 5.5730249999999995 2.0797499999999998a19.181287499999996 19.181287499999996 0 0 1 10.152 0c3.8775000000000004 -2.6226 5.5677375 -2.0797499999999998 5.5677375 -2.0797499999999998a7.2808875 7.2808875 0 0 1 0.200925 5.3632875 7.829025 7.829025 0 0 1 2.0850375 5.4426c0 7.7902499999999995 -4.7393625 9.5016375 -9.2548875 10.000425a4.8063375 4.8063375 0 0 1 1.3870875 3.7365v5.611800000000001c0 0.5410874999999999 0.327825 1.1403375 1.357125 0.9447A20.26875 20.26875 0 0 0 21.15 0.88125Z" fill="none" stroke="#000000" stroke-linecap="round" stroke-linejoin="round" stroke-width="1"></path></svg>