<svg xmlns="http://www.w3.org/2000/svg" viewBox="-2.9000000000000004 -2.9000000000000004 48 48" height="48" width="48" style="background-color: #28272b42"><defs></defs><title>professional-network-linkedin</title><path d="M11.456249999999999 39.65625h-8.8125v-22.912499999999998h8.8125Zm15.862499999999999 -15.862499999999999a3.525 3.525 0 0 0 -3.525 3.525v12.3375h-8.8125v-22.912499999999998h8.8125v2.6173125a11.1160875 11.1160875 0 0 1 7.032375 -2.6349375c5.220525 0 8.830124999999999 3.8775000000000004 8.830124999999999 11.2006875V39.65625h-8.8125v-12.3375a3.525 3.525 0 0 0 -3.525 -3.525ZM11.456249999999999 8.8125A4.40625 4.40625 0 1 1 7.05 4.40625 4.40625 4.40625 0 0 1 11.456249999999999 8.8125Z" fill="none" stroke="#000000" stroke-linecap="round" stroke-linejoin="round" stroke-width="1"></path></svg>